<svg width="1073" height="891" fill="none" xmlns="http://www.w3.org/2000/svg"><path fill-rule="evenodd" clip-rule="evenodd" d="M987 643.5l34.31-98.9a80.04 80.04 0 00-19.81-83.6l-.97-.94a100 100 0 01-29.54-83.76l12.87-105.78c6.67-54.82-32.37-104.67-87.2-111.34-2.79-.34-5.6-.56-8.4-.67L847 157l-84.18-80.36a94 94 0 00-106.95-16.08l-95.32 47.66a100 100 0 01-49.84 10.43l-77.38-3.97a83.46 83.46 0 00-86.08 66.82l-12.97 64.17a99.99 99.99 0 00-1.73 12.78l-12.17 172.53a66 66 0 01-6.3 23.84l-33.44 69.94a100 100 0 00-6.17 69.79L288 643.5h699z" fill="#C4C4DE"/><path fill-rule="evenodd" clip-rule="evenodd" d="M288 643.5l-89.71 97.38a71 71 0 0049 119.03l665.49 30.22A71 71 0 00987 819.2V643.5H288z" fill="#8B8BB5"/><mask id="a" maskUnits="userSpaceOnUse" x="423" y="0" width="650" height="409"><path d="M450.5 322.5V.5h-27V336a13.5 13.5 0 0013.5 13.5h220.22a86.5 86.5 0 0144.62 12.4l50.4 30.34a113.5 113.5 0 0058.54 16.26h261.72v-27H810.78a86.5 86.5 0 01-44.62-12.4l-50.4-30.34a113.5 113.5 0 00-58.54-16.26H450.5z" fill="#fff"/></mask><g mask="url(#a)"><path d="M450.5 322.5V.5h-27V336a13.5 13.5 0 0013.5 13.5h220.22a86.5 86.5 0 0144.62 12.4l50.4 30.34a113.5 113.5 0 0058.54 16.26h261.72v-27H810.78a86.5 86.5 0 01-44.62-12.4l-50.4-30.34a113.5 113.5 0 00-58.54-16.26H450.5z" fill="#FF8484"/><path fill-rule="evenodd" clip-rule="evenodd" d="M954 373.5h144v49H954v-49zm-561-59h144v49H393v-49zM415.5 198V75.5H476L464.5 198h-49zm287 106.5l116 55v49c-3.33 12.73-17 18.06-41 16-24-2.06-60.84-11.73-110.5-29l35.5-91z" fill="#DE6262"/></g><path fill-rule="evenodd" clip-rule="evenodd" d="M591 409.5L259 91l-29 410.5 354.5-63 6.5-29z" fill="#FFEECD"/><mask id="b" maskUnits="userSpaceOnUse" x="65" y="74" width="288" height="418"><path d="M126.7 486.44c65.26 26.33 155-43.4 200.45-155.76 45.45-112.36 29.4-224.79-35.86-251.12-65.25-26.33-155 43.4-200.44 155.76-45.45 112.36-29.4 224.79 35.86 251.12z" fill="#fff"/></mask><g mask="url(#b)"><path d="M228.04 501.63c70.1-6.17 118.4-109.04 107.88-229.79C325.41 151.1 260.06 58.21 189.96 64.37c-70.1 6.16-118.4 109.04-107.88 229.79 10.51 120.74 75.86 213.63 145.96 207.47z" fill="#F5CB76"/><path d="M346 425v18H238v-18h-51v-20h212v20h-53zm-2 0H240v16h104v-16zm-106-2h54v-16H189v16h49zm56 0h103v-16H294v16zm-80-283h-53v16h103v-16h-50zm0-2h52v20H53v-20h54v-18h107v18zm-55 18v-16H55v16h104zm53-18v-16H109v16h103zm-107 47h107v20H0v-20h105zm0 18v-16H2v16h103zm2 0h103v-16H107v16z" fill="#fff"/><path d="M398 471H293v18h105v-18zM451 425H346v18h105v-18z" stroke="#fff" stroke-width="2"/></g><path fill-rule="evenodd" clip-rule="evenodd" d="M571.97 450.5c-17.3 28.85-17.3 45.56 0 50.15 17.28 4.6 31.96-9.5 44.03-42.28l-44.03-7.87z" fill="#353535"/><path d="M592.5 803.5c117.36 0 212.5-11.64 212.5-26s-95.14-26-212.5-26-212.5 11.64-212.5 26 95.14 26 212.5 26z" fill="#353535"/><mask id="c" maskUnits="userSpaceOnUse" x="239" y="424" width="684" height="419"><path d="M849.4 765.28l22.95 16.23a6.3 6.3 0 011.15 9.24 9.92 9.92 0 01-11.02 2.83c-25.98-9.73-40.97-16.76-44.98-21.08L756 719l-78-19.5-5 102c-6.34.56-11.17.89-14.5 1-30 1-54.33 1.37-70.28 1.61-16 .25-34.79 0-62.03-.83-2.54-.08-7.71-.64-15.51-1.68l10.48-109.36-64.44 65.42a100.05 100.05 0 01-16.96 13.81l-58.52 37.82a64 64 0 01-21.98 8.96L240 842.5c-1.75-14.21 4.09-27.05 17.5-38.5 11.7-10 50.7-16.77 78.5-18.5 2.66-.16 25.56-19 68.71-56.51a44 44 0 004.28-4.26l73.66-84.34a98 98 0 0170.16-33.47L591 605.5l8.54-38.54h-20.8a28 28 0 01-26.5-37.04l20.73-60.74a66 66 0 0162.46-44.68h13.99a42.99 42.99 0 0140.44 57.57L643 612l126.75 46.4a100.01 100.01 0 0143.71 31.43L848 733c30-1.33 46.33.33 49 5 2.22 3.88 10.06 12.46 23.54 25.76a6.8 6.8 0 01-3.29 11.49 26.01 26.01 0 01-22.02-5.13l-5.73-4.62c-20.53 1.12-33.53 1.12-39 0l-1.1-.22z" fill="#fff"/></mask><g mask="url(#c)"><path d="M849.4 765.28l22.95 16.23a6.3 6.3 0 011.15 9.24 9.92 9.92 0 01-11.02 2.83c-25.98-9.73-40.97-16.76-44.98-21.08L756 719l-78-19.5-5 102c-6.34.56-11.17.89-14.5 1-30 1-54.33 1.37-70.28 1.61-16 .25-34.79 0-62.03-.83-2.54-.08-7.71-.64-15.51-1.68l10.48-109.36-64.44 65.42a100.05 100.05 0 01-16.96 13.81l-58.52 37.82a64 64 0 01-21.98 8.96L240 842.5c-1.75-14.21 4.09-27.05 17.5-38.5 11.7-10 50.7-16.77 78.5-18.5 2.66-.16 25.56-19 68.71-56.51a44 44 0 004.28-4.26l73.66-84.34a98 98 0 0170.16-33.47L591 605.5l8.54-38.54h-20.8a28 28 0 01-26.5-37.04l20.73-60.74a66 66 0 0162.46-44.68h13.99a42.99 42.99 0 0140.44 57.57L643 612l126.75 46.4a100.01 100.01 0 0143.71 31.43L848 733c30-1.33 46.33.33 49 5 2.22 3.88 10.06 12.46 23.54 25.76a6.8 6.8 0 01-3.29 11.49 26.01 26.01 0 01-22.02-5.13l-5.73-4.62c-20.53 1.12-33.53 1.12-39 0l-1.1-.22z" fill="#FFCDCD"/><path fill-rule="evenodd" clip-rule="evenodd" d="M568 604c9 15.33 24 24 45 26s36.33-3 46-15l106 21.4-44.5 81.6-22.5-3-19.69 87.98-184.26 12.52 27.64-121.9-27.64 51.76L417 659.78c33.29-32.72 62.74-52.48 88.36-59.28 25.62-6.79 46.5-5.63 62.64 3.5z" fill="#FFF9D6"/></g><path fill-rule="evenodd" clip-rule="evenodd" d="M677.7 475.88l20.3 4.86c.18 34.5-8.88 49.5-27.18 44.97-9.15-2.26-14.33-7.82-15.54-16.7-7.7 6.28-15.7 8-24.01 5.16-16.87-5.75-17.65-22.65-2.35-50.67L678 475.2l-.3.68z" fill="#353535"/><mask id="d" maskUnits="userSpaceOnUse" x="564" y="414" width="143" height="71"><path d="M564 448.47l143 36.03c-5.93-5.59-8.76-9.85-8.5-12.8 2.95-33.34-15.55-43.88-53.54-52.13-38.16-8.28-49.81-9.22-66.08 19.07-1.38 2.4-6.34 5.67-14.88 9.83z" fill="#fff"/></mask><g mask="url(#d)"><path d="M564 448.47l143 36.03c-5.93-5.59-8.76-9.85-8.5-12.8 2.95-33.34-15.55-43.88-53.54-52.13-38.16-8.28-49.81-9.22-66.08 19.07-1.38 2.4-6.34 5.67-14.88 9.83z" fill="#3C3CA0"/><path fill-rule="evenodd" clip-rule="evenodd" d="M593 437.5l108.5 29 3-11.5L597 422.5l-4 15z" fill="#26266F"/></g><path d="M587.5 443.5a19.5 19.5 0 100-39 19.5 19.5 0 000 39z" fill="#F5CB76"/><path d="M587.5 438.5c8.56 0 15.5-6.5 15.5-14.5s-6.94-14.5-15.5-14.5c-8.56 0-15.5 6.5-15.5 14.5s6.94 14.5 15.5 14.5z" fill="#FFEECD"/><path d="M581.33 474.38c-2.12-5.01-5.19-7.38-9.33-7.38v-3c5.17 0 9.1 2.84 11.68 8.3 10.04-5.99 18.47-3.8 24.6 6.43a1.5 1.5 0 11-2.57 1.54c-5.5-9.16-12.44-10.69-21.6-4.7l-20.74 35.09 12.16 2.37a1.5 1.5 0 01-.57 2.94l-14.25-2.77a1.5 1.5 0 01-1-2.24l21.62-36.58zM593 488.5a4 4 0 110-8 4 4 0 010 8zm-21-6a4 4 0 110-8 4 4 0 010 8zm-6.36 50.67c-4.55-1.25-7.4-5.01-6.38-8.42 1.03-3.4 5.55-5.16 10.1-3.92 4.55 1.25 7.4 5.01 6.38 8.42-1.02 3.4-5.55 5.16-10.1 3.92zm-11.55 13.31a1.5 1.5 0 012.82 1.04l-3.5 9.5a1.5 1.5 0 01-2.82-1.04l3.5-9.5zm6 2a1.5 1.5 0 012.82 1.04l-3.5 9.5a1.5 1.5 0 01-2.82-1.04l3.5-9.5zm6 2a1.5 1.5 0 012.82 1.04l-3.5 9.5a1.5 1.5 0 01-2.82-1.04l3.5-9.5z" fill="#353535"/><path fill-rule="evenodd" clip-rule="evenodd" d="M732 156v20H519v-20h20v-20h212v20h-19zm-88 41h107v20H644v-20zM401 561v19H293v-19h-53v-20h212v20h-51zm572-254h54v20H814v-20h-53v-20h212v20zm-79 226.5h71v20H858v-19h-71v-20h107v19z" fill="#8B8BB5"/><path d="M106 121H1v18h105v-18z" stroke="#fff" stroke-width="2"/><path d="M176.47 302.03v9.42h-8.68v7.07h-11.16v-7.07H126v-9.42l30.63-26.91h11.16v26.9h8.68zm-38.44 0h18.6v-15.75l-18.6 15.75zm66.77 17.11c-17.23 0-25.42-7.94-25.42-22.38 0-14.39 8.19-22.26 25.42-22.26 17.18 0 25.42 7.94 25.42 22.26 0 14.38-8.24 22.38-25.42 22.38zm0-9.36c9.8 0 14.26-4.9 14.26-13.02 0-8.06-4.46-12.9-14.26-12.9s-14.26 4.78-14.26 12.9c0 8.18 4.47 13.02 14.26 13.02zm79.55-7.75v9.42h-8.68v7.07H264.5v-7.07h-30.63v-9.42l30.63-26.91h11.16v26.9h8.68zm-38.44 0h18.6v-15.75l-18.6 15.75z" fill="#fff"/><path fill-rule="evenodd" clip-rule="evenodd" d="M643 337.5h9v20h-9v-20zm226 58h9v20h-9v-20z" fill="#8B8BB5"/><path fill-rule="evenodd" clip-rule="evenodd" d="M741 785.5H579V804h-15v-62a7.5 7.5 0 0115 0v28.5h162V742a7.5 7.5 0 0115 0v52l-15 2v-10.5z" fill="#FF8484"/><path d="M287.13 818.55A15.61 15.61 0 00276 833.5a1.5 1.5 0 003 0c0-5.57 3.65-10.48 8.99-12.08l14.94-4.48c.45-.14.81-.47.97-.91.6-1.59 4.75-4.3 12.22-7.66 6.92-3.12 10.8-3.63 15.45-3.04l.64.08.62.08a1.5 1.5 0 00.34-2.98 31.08 31.08 0 01-1.22-.15c-5.2-.67-9.63-.08-17.07 3.27-7.53 3.4-11.94 6.14-13.43 8.62l-14.32 4.3z" fill="#353535"/><path fill-rule="evenodd" clip-rule="evenodd" d="M648 523.16c20.28 5.26 32.07 1.33 35.38-11.8 2.52-9.96-2.74-18.18-14.27-15.4-2.45.6-7.15 5.11-14.11 13.54l-7 13.66z" fill="#FFCDCD"/><path d="M865.7 749.99l15.25-2.14a28.5 28.5 0 0122.32 6.42l18.26 15.38a1.5 1.5 0 001.94-2.3l-18.26-15.38a31.5 31.5 0 00-24.67-7.1l-15.25 2.14a1.5 1.5 0 10.42 2.98zM626 157h-87v-2h106v-19h2v19h85v2H628v19h-2v-19zm295 151H814.5a1 1 0 010-2H867v-19h2v19h104a1 1 0 010 2h-50v19h-2v-19zm-63 227a1 1 0 010-2h36a1 1 0 010 2h-36zm-513 25v-19h2v19h54v2H294v-2h51z" fill="#353535"/></svg>