<svg width="33" height="32" fill="none" xmlns="http://www.w3.org/2000/svg"><path d="M29 1.5a2 2 0 012 2v9a2 2 0 01-2 2h-9a2 2 0 01-2-2v-9c0-1.1.9-2 2-2h9z" fill="url(#paint0_linear)" stroke="url(#paint1_linear)"/><path d="M13 1.5a2 2 0 012 2v9a2 2 0 01-2 2H4a2 2 0 01-2-2v-9c0-1.1.9-2 2-2h9z" stroke="url(#paint2_linear)"/><path d="M13 17.5a2 2 0 012 2v9a2 2 0 01-2 2H4a2 2 0 01-2-2v-9c0-1.1.9-2 2-2h9z" stroke="url(#paint3_linear)"/><path d="M29 17.5a2 2 0 012 2v9a2 2 0 01-2 2h-9a2 2 0 01-2-2v-9c0-1.1.9-2 2-2h9z" stroke="url(#paint4_linear)"/><defs><linearGradient id="paint0_linear" x1="17.81" y1="8" x2="31.19" y2="8" gradientUnits="userSpaceOnUse"><stop stop-color="#42AEEA"/><stop offset="1" stop-color="#05057E"/></linearGradient><linearGradient id="paint1_linear" x1="17.81" y1="8" x2="31.19" y2="8" gradientUnits="userSpaceOnUse"><stop stop-color="#42AEEA"/><stop offset="1" stop-color="#05057E"/></linearGradient><linearGradient id="paint2_linear" x1="1.59" y1="16" x2="31.41" y2="16" gradientUnits="userSpaceOnUse"><stop stop-color="#42AEEA"/><stop offset="1" stop-color="#05057E"/></linearGradient><linearGradient id="paint3_linear" x1="1.59" y1="16" x2="31.41" y2="16" gradientUnits="userSpaceOnUse"><stop stop-color="#42AEEA"/><stop offset="1" stop-color="#05057E"/></linearGradient><linearGradient id="paint4_linear" x1="1.59" y1="16" x2="31.41" y2="16" gradientUnits="userSpaceOnUse"><stop stop-color="#42AEEA"/><stop offset="1" stop-color="#05057E"/></linearGradient></defs></svg>